<?xml version="1.0" encoding="UTF-8" standalone="no" ?>
<!DOCTYPE svg PUBLIC "-//W3C//DTD SVG 1.1//EN" "http://www.w3.org/Graphics/SVG/1.1/DTD/svg11.dtd">
<svg xmlns="http://www.w3.org/2000/svg" xmlns:xlink="http://www.w3.org/1999/xlink" version="1.1" width="618.1037445068359" height="156.32319999999999" xml:space="preserve">
<desc>Created with Fabric.js 1.6.0-rc.1</desc>
<defs></defs>
<g style="stroke: none; stroke-width: 1; stroke-dasharray: none; stroke-linecap: butt; stroke-linejoin: miter; stroke-miterlimit: 10; fill: none; fill-rule: nonzero; opacity: 1;" transform="translate(169.99 10) scale(0.17 0.23)" >
  <circle cx="254" cy="254" r="254" style="stroke: none; stroke-width: 1; stroke-dasharray: none; stroke-linecap: butt; stroke-linejoin: miter; stroke-miterlimit: 10; fill: #e84c43; fill-rule: nonzero; opacity: 0;" transform="  matrix(1 0 0 1 0 0) "/>
  <path d="M 345.8 109.6 H 136.4 v 288.6 h 217.8 c 9.6 0 17.4 -7.8 17.4 -17.4 v -72.6 h -25.8 L 345.8 109.6 L 345.8 109.6 z" style="stroke: none; stroke-width: 1; stroke-dasharray: none; stroke-linecap: butt; stroke-linejoin: miter; stroke-miterlimit: 10; fill: #EDF0F2; fill-rule: nonzero; opacity: 1;" transform=" matrix(1 0 0 1 0 0) " stroke-linecap="round" />
  <circle cx="254" cy="202" r="54.6" style="stroke: none; stroke-width: 1; stroke-dasharray: none; stroke-linecap: butt; stroke-linejoin: miter; stroke-miterlimit: 10; fill: #FFFFFF; fill-rule: nonzero; opacity: 1;" transform="  matrix(1 0 0 1 0 0) "/>
  <rect x="244" y="163" rx="0" ry="0" width="20" height="77.8" style="stroke: none; stroke-width: 1; stroke-dasharray: none; stroke-linecap: butt; stroke-linejoin: miter; stroke-miterlimit: 10; fill: #f23f3f; fill-rule: nonzero; opacity: 1;" transform=" matrix(1 0 0 1 0 0) "/>
  <rect x="215" y="192" rx="0" ry="0" width="77.8" height="20" style="stroke: none; stroke-width: 1; stroke-dasharray: none; stroke-linecap: butt; stroke-linejoin: miter; stroke-miterlimit: 10; fill: #f23f3f; fill-rule: nonzero; opacity: 1;" transform=" matrix(1 0 0 1 0 0) "/>
  <rect x="192.8" y="297.4" rx="0" ry="0" width="122.4" height="4" style="stroke: none; stroke-width: 1; stroke-dasharray: none; stroke-linecap: butt; stroke-linejoin: miter; stroke-miterlimit: 10; fill: #527F99; fill-rule: nonzero; opacity: 1;" transform=" matrix(1 0 0 1 0 0) "/>
  <rect x="192.8" y="322.4" rx="0" ry="0" width="122.4" height="4" style="stroke: none; stroke-width: 1; stroke-dasharray: none; stroke-linecap: butt; stroke-linejoin: miter; stroke-miterlimit: 10; fill: #527F99; fill-rule: nonzero; opacity: 1;" transform=" matrix(1 0 0 1 0 0) "/>
  <rect x="192.8" y="347.4" rx="0" ry="0" width="122.4" height="4" style="stroke: none; stroke-width: 1; stroke-dasharray: none; stroke-linecap: butt; stroke-linejoin: miter; stroke-miterlimit: 10; fill: #527F99; fill-rule: nonzero; opacity: 1;" transform=" matrix(1 0 0 1 0 0) "/>
  <rect x="345.8" y="240.2" rx="0" ry="0" width="23.2" height="68" style="stroke: none; stroke-width: 1; stroke-dasharray: none; stroke-linecap: butt; stroke-linejoin: miter; stroke-miterlimit: 10; fill: #e63a34; fill-rule: nonzero; opacity: 1;" transform=" matrix(1 0 0 1 0 0) "/>
  <rect x="345.8" y="170.8" rx="0" ry="0" width="23.2" height="69.4" style="stroke: none; stroke-width: 1; stroke-dasharray: none; stroke-linecap: butt; stroke-linejoin: miter; stroke-miterlimit: 10; fill: #3862b5; fill-rule: nonzero; opacity: 1;" transform=" matrix(1 0 0 1 0 0) "/>
  <path d="M 369 128.6 c 0 -9.6 -7 -17.4 -15.6 -17.4 h -7.6 v 59.4 H 369 V 128.6 z" style="stroke: none; stroke-width: 1; stroke-dasharray: none; stroke-linecap: butt; stroke-linejoin: miter; stroke-miterlimit: 10; fill: #edf254; fill-rule: nonzero; opacity: 1;" transform=" matrix(1 0 0 1 0 0) " stroke-linecap="round" />
</g>
  <g transform="translate(310.35 79.46) scale(2.6 2.6)">
   <text font-family="zwodrei - free" font-size="40" font-weight="normal" style="stroke: none; stroke-width: 1; stroke-dasharray: none; stroke-linecap: butt; stroke-linejoin: miter; stroke-miterlimit: 10; fill: #e84c43; fill-rule: nonzero; opacity: 1;" ><tspan x="-115.02" y="8.98" style="stroke: none; stroke-width: 0; stroke-dasharray: none; stroke-linecap: butt; stroke-linejoin: miter; stroke-miterlimit: 4; fill: #e84c43; fill-rule: ; opacity: 1;">H</tspan><tspan x="-88.06" y="8.98" style="stroke: none; stroke-width: 0; stroke-dasharray: none; stroke-linecap: butt; stroke-linejoin: miter; stroke-miterlimit: 4; fill: #e84c43; fill-rule: ; opacity: 1;">e</tspan><tspan x="-67.02" y="8.98" style="stroke: none; stroke-width: 0; stroke-dasharray: none; stroke-linecap: butt; stroke-linejoin: miter; stroke-miterlimit: 4; fill: #e84c43; fill-rule: ; opacity: 1;">a</tspan><tspan x="-47.3" y="8.98" style="stroke: none; stroke-width: 0; stroke-dasharray: none; stroke-linecap: butt; stroke-linejoin: miter; stroke-miterlimit: 4; fill: #e84c43; fill-rule: ; opacity: 1;"> </tspan><tspan x="-36.9" y="8.98" style="stroke: none; stroke-width: 0; stroke-dasharray: none; stroke-linecap: butt; stroke-linejoin: miter; stroke-miterlimit: 4; fill: #e84c43; fill-rule: ; opacity: 1;"> </tspan><tspan x="-26.5" y="8.98" style="stroke: none; stroke-width: 0; stroke-dasharray: none; stroke-linecap: butt; stroke-linejoin: miter; stroke-miterlimit: 4; fill: #e84c43; fill-rule: ; opacity: 1;">t</tspan><tspan x="-11.34" y="8.98" style="stroke: none; stroke-width: 0; stroke-dasharray: none; stroke-linecap: butt; stroke-linejoin: miter; stroke-miterlimit: 4; fill: #e84c43; fill-rule: ; opacity: 1;">h</tspan><tspan x="11.54" y="8.98" style="stroke: none; stroke-width: 0; stroke-dasharray: none; stroke-linecap: butt; stroke-linejoin: miter; stroke-miterlimit: 4; fill: #e84c43; fill-rule: ; opacity: 1;">F</tspan><tspan x="31.9" y="8.98" style="stroke: none; stroke-width: 0; stroke-dasharray: none; stroke-linecap: butt; stroke-linejoin: miter; stroke-miterlimit: 4; fill: #e84c43; fill-rule: ; opacity: 1;"> </tspan><tspan x="42.3" y="8.98" style="stroke: none; stroke-width: 0; stroke-dasharray: none; stroke-linecap: butt; stroke-linejoin: miter; stroke-miterlimit: 4; fill: #e84c43; fill-rule: ; opacity: 1;"> </tspan><tspan x="52.7" y="8.98" style="stroke: none; stroke-width: 0; stroke-dasharray: none; stroke-linecap: butt; stroke-linejoin: miter; stroke-miterlimit: 4; fill: #e84c43; fill-rule: ; opacity: 1;"> </tspan><tspan x="63.1" y="8.98" style="stroke: none; stroke-width: 0; stroke-dasharray: none; stroke-linecap: butt; stroke-linejoin: miter; stroke-miterlimit: 4; fill: #e84c43; fill-rule: ; opacity: 1;">r</tspan><tspan x="79.42" y="8.98" style="stroke: none; stroke-width: 0; stroke-dasharray: none; stroke-linecap: butt; stroke-linejoin: miter; stroke-miterlimit: 4; fill: #e84c43; fill-rule: ; opacity: 1;">m</tspan></text>
 </g>
<g style="stroke: none; stroke-width: 1; stroke-dasharray: none; stroke-linecap: butt; stroke-linejoin: miter; stroke-miterlimit: 10; fill: none; fill-rule: nonzero; opacity: 1;" transform="translate(386.63 36.20999999999993) scale(0.6 0.6)" >
  <circle cx="237.37199999999999" cy="168.772" r="24.862" style="stroke: none; stroke-width: 1; stroke-dasharray: none; stroke-linecap: butt; stroke-linejoin: miter; stroke-miterlimit: 10; fill: #bf303e; fill-rule: nonzero; opacity: 1;" transform="  matrix(0.9999965376713633 0 0 0.9999965376713633 -160.42044456977777 -112.17561160982285) "/>
  <path d="M 232.534 152.272 v 10.785 H 221.75 v 10.369 h 10.784 v 10.783 h 10.37 v -10.783 h 10.784 v -10.369 h -10.727 l -0.057 -0.076 v -10.709 z" style="stroke: none; stroke-width: 1; stroke-dasharray: none; stroke-linecap: butt; stroke-linejoin: miter; stroke-miterlimit: 10; fill: #f5f5f5; fill-rule: nonzero; opacity: 1;" transform=" matrix(0.9999965376713633 0 0 0.9999965376713633 -160.42044456977777 -112.17561160982285) " stroke-linecap="round" />
  <path d="M 289.705 180.176 s -51.742 47 -106.226 0 h -4.563 s 53.162 66 115.647 0 h -4.858 z" style="stroke: none; stroke-width: 1; stroke-dasharray: none; stroke-linecap: butt; stroke-linejoin: miter; stroke-miterlimit: 10; fill: #f9e280; fill-rule: nonzero; opacity: 1;" transform=" matrix(0.9999965376713633 0 0 0.9999965376713633 -160.42044456977777 -112.17561160982285) " stroke-linecap="round" />
  <path d="M 294.432 169.306 c -1.289 -3.867 -4.217 -10.987 -10.016 -18.116 a 55.173 55.173 0 0 0 -3.679 -4.082 l 8.85 -10.254 l -4.806 -4.147 l -8.775 10.168 a 55.086 55.086 0 0 0 -13.512 -7.881 l 5.279 -15.089 l -5.992 -2.098 l -5.288 15.115 c -4.719 -1.358 -10.01 -2.268 -15.93 -2.538 v -18.208 h -6.347 v 18.163 c -6.572 0.211 -12.419 1.206 -17.607 2.727 l -5.34 -15.259 l -5.992 2.098 l 5.339 15.255 a 58.297 58.297 0 0 0 -13.527 7.765 l -8.819 -10.218 l -4.805 4.147 l 8.814 10.213 a 58.713 58.713 0 0 0 -3.834 4.042 c -6.195 7.195 -9.451 14.381 -10.889 18.196 l -17.135 7.538 h 22.722 l 0.754 -2.783 c 0.024 -0.089 2.511 -9.032 10.261 -18.033 c 9.879 -11.474 23.35 -17.561 40.059 -18.139 v 0.076 h 6.347 v -0.035 c 16.011 0.789 28.721 6.752 37.804 17.772 c 7.386 8.96 9.545 18.114 9.563 18.196 l 0.659 2.946 h 22.989 l -17.147 -7.537 z" style="stroke: none; stroke-width: 1; stroke-dasharray: none; stroke-linecap: butt; stroke-linejoin: miter; stroke-miterlimit: 10; fill: #077aad; fill-rule: nonzero; opacity: 1;" transform=" matrix(0.9999965376713633 0 0 0.9999965376713633 -160.42044456977777 -112.17561160982285) " stroke-linecap="round" />
</g>
</svg>